<svg version="1.1" xmlns="http://www.w3.org/2000/svg" xmlns:xlink="http://www.w3.org/1999/xlink" style="enable-background:new 0 0 1792 1792;" xml:space="preserve" width="1792" height="1792"><rect id="backgroundrect" width="100%" height="100%" x="0" y="0" fill="none" stroke="none"/>

<g class="currentLayer" style=""><title>Layer 1</title><path d="M808.7,259.9c23.2-23.6,55.6-35.9,88.6-33.6c31.9-2.4,63,10,84.6,33.6l548.3,546.3c45.4,45.4,45.4,119,0,164.4  c-45.4,45.4-119,45.4-164.4,0l-354.4-354.4v833.6c0.4,63.8-51,115.8-114.8,116.1c-0.2,0-0.4,0-0.7,0c-64-0.4-115.8-52.1-116.1-116.1  V616.3L426.2,970.6c-45.4,45.4-119,45.4-164.4,0c-45.4-45.4-45.4-119,0-164.4l0,0L808.7,259.9z" id="svg_1" class="selected" fill="#ffffff" fill-opacity="1"/></g></svg>